#Comment line ignore any data following # character 
#Hierarchical Translation and Rotation (.htr) file 
[Header]	
#Header keywords are followed by a single value 
FileType HTR		#Single word string
DataType HTRS		#Translation followed by rotation and scale data
FileVersion 1		#integer
NumSegments 84		#integer
NumFrames 2		#integer
DataFrameRate 30		#integer, data frame rate in this file
EulerRotationOrder ZYX
CalibrationUnits mm
RotationUnits Degrees
GlobalAxisofGravity Y
BoneLengthAxis Y
ScaleFactor 1.00
[SegmentNames&Hierarchy]
#CHILD	PARENT
MASTER GLOBAL
root MASTER
chest root
L_mid_tent01 root
R_mid_tent01 root
spine01 root
Bip01_Neck chest
L_humerus chest
R_humerus chest
weapon_bone chest
Bip01_Head Bip01_Neck
eye_left_bone Bip01_Head
eye_right_bone Bip01_Head
L_forearm L_humerus
L_front_hand L_forearm
L_weapon_bone L_forearm
L_front_hand01_01 L_front_hand
L_front_hand02_01 L_front_hand
L_front_hand03_01 L_front_hand
L_front_hand01_02 L_front_hand01_01
L_front_hand02_02 L_front_hand02_01
L_front_hand03_02 L_front_hand03_01
R_forearm R_humerus
R_front_hand R_forearm
R_weapon_bone R_forearm
R_front_hand01_01 R_front_hand
R_front_hand02_01 R_front_hand
R_front_hand03_01 R_front_hand
R_front_hand01_02 R_front_hand01_01
R_front_hand02_02 R_front_hand02_01
R_front_hand03_02 R_front_hand03_01
null_rope01_connect L_mid_tent01
Rope1_Seg01 null_rope01_connect
Rope1_Seg02 Rope1_Seg01
Rope1_Seg03 Rope1_Seg02
Rope1_Seg04 Rope1_Seg03
Rope1_Seg05 Rope1_Seg04
Rope1_Seg06 Rope1_Seg05
Rope1_Seg07 Rope1_Seg06
Rope1_Seg09 Rope1_Seg07
L_mid_hand01 Rope1_Seg09
L_mid_hand02 Rope1_Seg09
L_mid_hand03 Rope1_Seg09
null_rope02_connect R_mid_tent01
Rope2_Seg01 null_rope02_connect
Rope2_Seg02 Rope2_Seg01
Rope2_Seg03 Rope2_Seg02
Rope2_Seg04 Rope2_Seg03
Rope2_Seg05 Rope2_Seg04
Rope2_Seg06 Rope2_Seg05
Rope2_Seg07 Rope2_Seg06
Rope2_Seg09 Rope2_Seg07
R_mid_hand01 Rope2_Seg09
R_mid_hand02 Rope2_Seg09
R_mid_hand03 Rope2_Seg09
spine02 spine01
spine03 spine02
pelvis spine03
null_rope03_connect pelvis
null_rope04_connect pelvis
Rope3_Seg01 null_rope03_connect
Rope3_Seg02 Rope3_Seg01
Rope3_Seg03 Rope3_Seg02
Rope3_Seg04 Rope3_Seg03
Rope3_Seg05 Rope3_Seg04
Rope3_Seg06 Rope3_Seg05
Rope3_Seg07 Rope3_Seg06
Rope3_Seg08 Rope3_Seg07
Rope3_Seg09 Rope3_Seg08
R_rear_hand01 Rope3_Seg09
R_rear_hand02 Rope3_Seg09
R_rear_hand03 Rope3_Seg09
Rope4_Seg01 null_rope04_connect
Rope4_Seg02 Rope4_Seg01
Rope4_Seg03 Rope4_Seg02
Rope4_Seg04 Rope4_Seg03
Rope4_Seg05 Rope4_Seg04
Rope4_Seg06 Rope4_Seg05
Rope4_Seg07 Rope4_Seg06
Rope4_Seg08 Rope4_Seg07
Rope4_Seg09 Rope4_Seg08
L_rear_hand01 Rope4_Seg09
L_rear_hand02 Rope4_Seg09
L_rear_hand03 Rope4_Seg09
[BasePosition]
#SegmentName Tx, Ty, Tz, Rx, Ry, Rz, BoneLength
MASTER 0.000000 0.000000 0.000000 -90.000000 0.000000 0.000000 10.000000 
root 0.000000 0.000000 0.000000 0.000000 0.000000 0.000000 10.000000 
chest 0.000000 0.000000 0.000000 0.000000 0.000000 0.000000 10.000000 
L_mid_tent01 0.000000 0.000000 0.000000 0.000000 0.000000 0.000000 10.000000 
R_mid_tent01 0.000000 0.000000 0.000000 0.000000 0.000000 0.000000 10.000000 
spine01 0.000000 0.000000 0.000000 0.000000 0.000000 0.000000 10.000000 
Bip01_Neck 0.000000 0.000000 0.000000 0.000000 0.000000 0.000000 10.000000 
L_humerus 0.000000 0.000000 0.000000 0.000000 0.000000 0.000000 10.000000 
R_humerus 0.000000 0.000000 0.000000 0.000000 0.000000 0.000000 10.000000 
weapon_bone 0.000000 0.000000 0.000000 0.000000 0.000000 0.000000 10.000000 
Bip01_Head 0.000000 0.000000 0.000000 0.000000 0.000000 0.000000 10.000000 
eye_left_bone 0.000000 0.000000 0.000000 0.000000 0.000000 0.000000 10.000000 
eye_right_bone 0.000000 0.000000 0.000000 0.000000 0.000000 0.000000 10.000000 
L_forearm 0.000000 0.000000 0.000000 0.000000 0.000000 0.000000 10.000000 
L_front_hand 0.000000 0.000000 0.000000 0.000000 0.000000 0.000000 10.000000 
L_weapon_bone 0.000000 0.000000 0.000000 0.000000 0.000000 0.000000 10.000000 
L_front_hand01_01 0.000000 0.000000 0.000000 0.000000 0.000000 0.000000 10.000000 
L_front_hand02_01 0.000000 0.000000 0.000000 0.000000 0.000000 0.000000 10.000000 
L_front_hand03_01 0.000000 0.000000 0.000000 0.000000 0.000000 0.000000 10.000000 
L_front_hand01_02 0.000000 0.000000 0.000000 0.000000 0.000000 0.000000 10.000000 
L_front_hand02_02 0.000000 0.000000 0.000000 0.000000 0.000000 0.000000 10.000000 
L_front_hand03_02 0.000000 0.000000 0.000000 0.000000 0.000000 0.000000 10.000000 
R_forearm 0.000000 0.000000 0.000000 0.000000 0.000000 0.000000 10.000000 
R_front_hand 0.000000 0.000000 0.000000 0.000000 0.000000 0.000000 10.000000 
R_weapon_bone 0.000000 0.000000 0.000000 0.000000 0.000000 0.000000 10.000000 
R_front_hand01_01 0.000000 0.000000 0.000000 0.000000 0.000000 0.000000 10.000000 
R_front_hand02_01 0.000000 0.000000 0.000000 0.000000 0.000000 0.000000 10.000000 
R_front_hand03_01 0.000000 0.000000 0.000000 0.000000 0.000000 0.000000 10.000000 
R_front_hand01_02 0.000000 0.000000 0.000000 0.000000 0.000000 0.000000 10.000000 
R_front_hand02_02 0.000000 0.000000 0.000000 0.000000 0.000000 0.000000 10.000000 
R_front_hand03_02 0.000000 0.000000 0.000000 0.000000 0.000000 0.000000 10.000000 
null_rope01_connect 0.000000 0.000000 0.000000 0.000000 0.000000 0.000000 10.000000 
Rope1_Seg01 0.000000 0.000000 0.000000 0.000000 0.000000 0.000000 10.000000 
Rope1_Seg02 0.000000 0.000000 0.000000 0.000000 0.000000 0.000000 10.000000 
Rope1_Seg03 0.000000 0.000000 0.000000 0.000000 0.000000 0.000000 10.000000 
Rope1_Seg04 0.000000 0.000000 0.000000 0.000000 0.000000 0.000000 10.000000 
Rope1_Seg05 0.000000 0.000000 0.000000 0.000000 0.000000 0.000000 10.000000 
Rope1_Seg06 0.000000 0.000000 0.000000 0.000000 0.000000 0.000000 10.000000 
Rope1_Seg07 0.000000 0.000000 0.000000 0.000000 0.000000 0.000000 10.000000 
Rope1_Seg09 0.000000 0.000000 0.000000 0.000000 0.000000 0.000000 10.000000 
L_mid_hand01 0.000000 0.000000 0.000000 0.000000 0.000000 0.000000 10.000000 
L_mid_hand02 0.000000 0.000000 0.000000 0.000000 0.000000 0.000000 10.000000 
L_mid_hand03 0.000000 0.000000 0.000000 0.000000 0.000000 0.000000 10.000000 
null_rope02_connect 0.000000 0.000000 0.000000 0.000000 0.000000 0.000000 10.000000 
Rope2_Seg01 0.000000 0.000000 0.000000 0.000000 0.000000 0.000000 10.000000 
Rope2_Seg02 0.000000 0.000000 0.000000 0.000000 0.000000 0.000000 10.000000 
Rope2_Seg03 0.000000 0.000000 0.000000 0.000000 0.000000 0.000000 10.000000 
Rope2_Seg04 0.000000 0.000000 0.000000 0.000000 0.000000 0.000000 10.000000 
Rope2_Seg05 0.000000 0.000000 0.000000 0.000000 0.000000 0.000000 10.000000 
Rope2_Seg06 0.000000 0.000000 0.000000 0.000000 0.000000 0.000000 10.000000 
Rope2_Seg07 0.000000 0.000000 0.000000 0.000000 0.000000 0.000000 10.000000 
Rope2_Seg09 0.000000 0.000000 0.000000 0.000000 0.000000 0.000000 10.000000 
R_mid_hand01 0.000000 0.000000 0.000000 0.000000 0.000000 0.000000 10.000000 
R_mid_hand02 0.000000 0.000000 0.000000 0.000000 0.000000 0.000000 10.000000 
R_mid_hand03 0.000000 0.000000 0.000000 0.000000 0.000000 0.000000 10.000000 
spine02 0.000000 0.000000 0.000000 0.000000 0.000000 0.000000 10.000000 
spine03 0.000000 0.000000 0.000000 0.000000 0.000000 0.000000 10.000000 
pelvis 0.000000 0.000000 0.000000 0.000000 0.000000 0.000000 10.000000 
null_rope03_connect 0.000000 0.000000 0.000000 0.000000 0.000000 0.000000 10.000000 
null_rope04_connect 0.000000 0.000000 0.000000 0.000000 0.000000 0.000000 10.000000 
Rope3_Seg01 0.000000 0.000000 0.000000 0.000000 0.000000 0.000000 10.000000 
Rope3_Seg02 0.000000 0.000000 0.000000 0.000000 0.000000 0.000000 10.000000 
Rope3_Seg03 0.000000 0.000000 0.000000 0.000000 0.000000 0.000000 10.000000 
Rope3_Seg04 0.000000 0.000000 0.000000 0.000000 0.000000 0.000000 10.000000 
Rope3_Seg05 0.000000 0.000000 0.000000 0.000000 0.000000 0.000000 10.000000 
Rope3_Seg06 0.000000 0.000000 0.000000 0.000000 0.000000 0.000000 10.000000 
Rope3_Seg07 0.000000 0.000000 0.000000 0.000000 0.000000 0.000000 10.000000 
Rope3_Seg08 0.000000 0.000000 0.000000 0.000000 0.000000 0.000000 10.000000 
Rope3_Seg09 0.000000 0.000000 0.000000 0.000000 0.000000 0.000000 10.000000 
R_rear_hand01 0.000000 0.000000 0.000000 0.000000 0.000000 0.000000 10.000000 
R_rear_hand02 0.000000 0.000000 0.000000 0.000000 0.000000 0.000000 10.000000 
R_rear_hand03 0.000000 0.000000 0.000000 0.000000 0.000000 0.000000 10.000000 
Rope4_Seg01 0.000000 0.000000 0.000000 0.000000 0.000000 0.000000 10.000000 
Rope4_Seg02 0.000000 0.000000 0.000000 0.000000 0.000000 0.000000 10.000000 
Rope4_Seg03 0.000000 0.000000 0.000000 0.000000 0.000000 0.000000 10.000000 
Rope4_Seg04 0.000000 0.000000 0.000000 0.000000 0.000000 0.000000 10.000000 
Rope4_Seg05 0.000000 0.000000 0.000000 0.000000 0.000000 0.000000 10.000000 
Rope4_Seg06 0.000000 0.000000 0.000000 0.000000 0.000000 0.000000 10.000000 
Rope4_Seg07 0.000000 0.000000 0.000000 0.000000 0.000000 0.000000 10.000000 
Rope4_Seg08 0.000000 0.000000 0.000000 0.000000 0.000000 0.000000 10.000000 
Rope4_Seg09 0.000000 0.000000 0.000000 0.000000 0.000000 0.000000 10.000000 
L_rear_hand01 0.000000 0.000000 0.000000 0.000000 0.000000 0.000000 10.000000 
L_rear_hand02 0.000000 0.000000 0.000000 0.000000 0.000000 0.000000 10.000000 
L_rear_hand03 0.000000 0.000000 0.000000 0.000000 0.000000 0.000000 10.000000 
#Beginning of Data. Separated by tabs
#Fr	Tx	Ty	Tz	Rx	Ry	Rz	SF
[MASTER]
142 -0.000282 1935.227295 0.000000 0.001660 0.001660 0.001660 1935.227295
143 -0.000322 2197.928223 0.000000 0.001660 0.001660 0.001660 2197.928223
[root]
142 -212.735046 1386.311157 1348.212036 -79.654541 -24.356216 -96.187149 1945.453857
143 -208.089172 1281.252075 1366.053955 -80.942787 -24.358868 -96.185417 1884.412720
[chest]
142 -84.512650 -34.090519 0.000000 -1.642453 9.057133 165.136078 91.129311
143 -84.512650 -34.090519 0.000000 -1.633244 8.021495 165.979614 91.129311
[L_mid_tent01]
142 27.371634 22.136318 -250.381256 10.386284 28.656858 79.264992 252.843826
143 27.363619 22.140921 -250.329788 10.497679 29.743547 79.494141 252.792404
[R_mid_tent01]
142 23.228794 24.509907 226.238495 165.692276 -44.502644 72.203079 228.744751
143 23.228794 24.509907 226.238495 167.482269 -43.118366 69.996017 228.744751
[spine01]
142 -0.361383 -0.195265 0.000000 0.001869 0.001420 15.534141 0.410763
143 -0.361383 -0.195265 0.000000 0.001869 0.001420 15.534141 0.410763
[Bip01_Neck]
142 165.484543 71.581718 0.000119 175.896118 1.177290 24.871183 180.302734
143 165.484543 71.581718 0.000119 175.896118 1.177290 24.871183 180.302734
[L_humerus]
142 -13.983130 -135.272980 -120.471481 178.111969 29.243179 -105.274475 181.680161
143 -13.983130 -135.272980 -120.471481 178.624954 29.627411 -104.665833 181.680161
[R_humerus]
142 -13.983309 -135.273102 125.287651 -173.661148 -18.969030 -108.501541 184.909012
143 -13.983309 -135.273102 125.287651 -173.486588 -19.604635 -108.117630 184.909012
[weapon_bone]
142 235.964890 -300.705902 0.000000 0.000000 -89.951546 -128.212341 382.234833
143 235.964890 -300.705902 0.000000 0.000000 -89.951546 -128.212341 382.234833
[Bip01_Head]
142 185.854187 182.351929 15.089680 0.326678 3.168233 -66.252396 260.809723
143 185.884094 182.854767 15.122155 0.489128 3.408310 -63.647446 261.184692
[eye_left_bone]
142 -24.626970 125.451866 -64.772606 0.000000 -90.000000 -99.840431 143.318359
143 -24.626970 125.451866 -64.772606 0.000000 -90.000000 -99.840431 143.318359
[eye_right_bone]
142 -24.626970 125.451866 64.327362 0.000000 -89.960434 80.159386 143.117676
143 -24.626970 125.451866 64.327362 0.000000 -89.960434 80.159386 143.117676
[L_forearm]
142 322.776093 0.000000 -0.000119 0.000232 0.002336 -78.633545 322.776093
143 322.776093 0.000000 -0.000119 0.000269 0.002332 -76.823318 322.776093
[L_front_hand]
142 241.149185 -0.042021 -3.300071 -178.667953 -1.835447 -27.422350 241.171753
143 241.149185 -0.042021 -3.300071 -178.667953 -1.835447 -27.422350 241.171753
[L_weapon_bone]
142 156.183838 0.000000 0.000000 0.000014 0.000007 0.000001 156.183838
143 156.183838 0.000000 0.000000 0.000014 0.000007 0.000001 156.183838
[L_front_hand01_01]
142 86.095154 20.947098 -0.655860 -0.366594 -0.477154 75.385574 88.609184
143 86.095154 20.947098 -0.655860 -0.366594 -0.477154 75.385574 88.609184
[L_front_hand02_01]
142 86.935165 -11.437475 24.513514 154.403519 -59.888931 -61.371990 91.046425
143 86.935165 -11.437475 24.513514 154.403519 -59.888931 -61.371990 91.046425
[L_front_hand03_01]
142 86.637497 -14.123976 -20.424902 -153.913849 58.118122 -62.702866 90.126129
143 86.637497 -14.123976 -20.424902 -153.913879 58.118130 -62.702892 90.126129
[L_front_hand01_02]
142 71.020905 -0.000179 0.000030 0.000334 -0.002323 -106.379684 71.020905
143 71.020905 -0.000179 0.000030 0.000334 -0.002323 -106.379684 71.020905
[L_front_hand02_02]
142 71.020927 -0.000119 0.000060 0.000334 -0.002323 -106.379684 71.020927
143 71.020927 -0.000119 0.000060 0.000334 -0.002323 -106.379684 71.020927
[L_front_hand03_02]
142 71.020905 -0.000060 0.000060 0.000334 -0.002323 -106.379684 71.020905
143 71.020905 -0.000060 0.000060 0.000334 -0.002323 -106.379684 71.020905
[R_forearm]
142 322.776428 -0.000060 0.000030 0.190935 -0.090394 -65.615311 322.776428
143 322.776428 -0.000060 0.000030 0.187818 -0.095088 -64.236176 322.776428
[R_front_hand]
142 238.847015 -0.006795 2.210259 -116.534431 0.789243 -51.441441 238.857239
143 238.847015 -0.006795 2.210259 -116.534447 0.789241 -51.441441 238.857239
[R_weapon_bone]
142 155.664093 0.002503 -0.000030 0.003487 0.001180 -90.988930 155.664078
143 155.664093 0.002503 -0.000030 0.003487 0.001180 -90.988930 155.664078
[R_front_hand01_01]
142 87.624611 14.231146 22.918642 -154.633514 -59.950634 61.746063 91.683487
143 87.624611 14.231146 22.918642 -154.633499 -59.950619 61.746044 91.683487
[R_front_hand02_01]
142 89.356956 14.367283 -19.491137 154.602661 58.302849 63.744389 92.579636
143 89.356956 14.367283 -19.491137 154.602661 58.302856 63.744389 92.579636
[R_front_hand03_01]
142 87.286232 -22.307278 -0.143439 0.162155 -0.423168 -75.767921 90.091743
143 87.286232 -22.307278 -0.143439 0.162155 -0.423168 -75.767921 90.091743
[R_front_hand01_02]
142 71.020905 0.000060 0.000119 0.002323 -0.000334 106.381714 71.020905
143 71.020905 0.000060 0.000119 0.002323 -0.000334 106.381714 71.020905
[R_front_hand02_02]
142 71.020844 -0.000030 -0.000119 0.002323 -0.000334 106.381714 71.020836
143 71.020844 -0.000030 -0.000119 0.002323 -0.000334 106.381714 71.020836
[R_front_hand03_02]
142 71.020905 0.000000 0.000030 0.002323 -0.000334 106.381714 71.020905
143 71.020905 0.000000 0.000030 0.002323 -0.000334 106.381714 71.020905
[null_rope01_connect]
142 328.732483 0.000000 -0.000238 -106.686905 -61.998135 142.552368 328.732483
143 328.732483 0.000000 -0.000238 -109.863434 -60.227913 145.678955 328.732483
[Rope1_Seg01]
142 6.303442 -4.865582 0.166613 25.662762 39.475677 -143.014542 7.964612
143 6.175146 -4.991182 -0.085644 24.314318 29.532898 -142.304794 7.940507
[Rope1_Seg02]
142 139.999863 -0.000179 0.000000 -1.666947 4.297688 -11.170671 139.999863
143 139.999863 -0.000179 0.000000 -1.866400 4.265496 -9.468255 139.999863
[Rope1_Seg03]
142 139.999924 0.000060 -0.000060 -2.246113 11.003371 -28.084400 139.999924
143 139.999924 0.000060 -0.000060 -3.920985 12.082990 -26.142172 139.999924
[Rope1_Seg04]
142 139.999924 -0.000060 -0.000119 11.219485 16.939768 -44.498856 139.999924
143 139.999924 -0.000060 -0.000119 0.997688 22.242485 -49.635853 139.999924
[Rope1_Seg05]
142 139.999832 0.000119 -0.000060 31.699377 1.373069 -17.865652 139.999832
143 139.999832 0.000119 -0.000060 25.671396 5.572948 -19.204502 139.999832
[Rope1_Seg06]
142 139.999954 0.000119 -0.000060 25.089005 -5.130723 -6.822945 139.999954
143 139.999954 0.000119 -0.000060 28.284698 -2.608105 -7.996388 139.999954
[Rope1_Seg07]
142 139.999985 0.000060 0.000000 21.601631 -9.999101 -3.259759 139.999985
143 139.999985 0.000060 0.000000 31.202818 -8.219467 -5.761363 139.999985
[Rope1_Seg09]
142 121.602913 0.000119 -0.000089 -89.793175 -1.359789 0.847147 121.602913
143 121.602913 0.000119 -0.000089 -89.793175 -1.359789 0.847147 121.602913
[L_mid_hand01]
142 103.859421 1.038730 8.195221 116.294914 -23.111713 -31.758034 104.187431
143 103.859421 1.038730 8.195221 116.294914 -23.111713 -31.758034 104.187431
[L_mid_hand02]
142 105.572853 -4.139662 -10.864139 -144.219833 17.447468 -35.360519 106.211075
143 105.572853 -4.139662 -10.864139 -144.219833 17.447468 -35.360519 106.211075
[L_mid_hand03]
142 104.641464 17.579376 -3.913581 -17.830778 17.153103 31.982925 106.179977
143 104.641464 17.579376 -3.913581 -17.830780 17.153103 31.982925 106.179977
[null_rope02_connect]
142 328.732849 0.000179 -0.000119 -125.497421 40.381203 1.971522 328.732849
143 328.732849 0.000179 -0.000119 -125.326241 43.215721 1.421222 328.732849
[Rope2_Seg01]
142 0.000003 0.000296 0.000000 29.395813 43.318859 -37.739025 0.000296
143 0.000003 0.000297 0.000000 32.652084 42.108265 -34.766590 0.000297
[Rope2_Seg02]
142 139.999741 -0.000060 -0.000119 3.874050 5.400505 5.675581 139.999756
143 139.999741 -0.000060 -0.000119 4.087495 5.927385 5.636672 139.999756
[Rope2_Seg03]
142 140.000107 0.000030 0.000000 8.312466 14.257172 13.550764 140.000107
143 140.000107 0.000030 0.000000 8.365666 15.415733 13.202546 140.000107
[Rope2_Seg04]
142 139.999802 0.000000 -0.000060 16.889570 37.966278 39.807194 139.999802
143 139.999802 0.000000 -0.000060 14.701922 38.765026 36.446434 139.999802
[Rope2_Seg05]
142 139.999985 -0.000060 0.000119 -4.796007 25.327290 14.987287 139.999985
143 139.999985 -0.000060 0.000119 -5.582275 25.026733 13.203969 139.999985
[Rope2_Seg06]
142 139.999893 -0.000030 -0.000119 -7.147345 17.786287 3.898900 139.999893
143 139.999893 -0.000030 -0.000119 -7.786208 18.106455 3.428524 139.999893
[Rope2_Seg07]
142 139.999893 0.000060 -0.000060 -10.353066 11.767232 6.520333 139.999893
143 139.999893 0.000060 -0.000060 -11.274985 11.766243 6.305149 139.999893
[Rope2_Seg09]
142 121.338966 0.000089 -0.000060 33.793236 -1.359788 -0.847141 121.338966
143 121.338966 0.000089 -0.000060 33.793236 -1.359788 -0.847141 121.338966
[R_mid_hand01]
142 104.680779 11.144459 -10.335981 -41.523792 25.424656 28.595957 105.778534
143 104.680779 11.144459 -10.335981 -41.523792 25.424656 28.595957 105.778534
[R_mid_hand02]
142 104.070427 2.443552 8.231699 72.847389 -32.746803 10.013901 104.424065
143 104.070427 2.443552 8.231699 72.847389 -32.746803 10.013901 104.424065
[R_mid_hand03]
142 106.028137 -11.221827 -5.996406 -167.901306 10.259192 -37.009720 106.788818
143 106.028137 -11.221827 -5.996406 -167.901306 10.259192 -37.009720 106.788818
[spine02]
142 129.756927 0.001550 0.000119 -0.245322 -4.052060 -4.355547 129.756927
143 129.756927 0.001550 0.000119 -0.245322 -4.052060 -4.355547 129.756927
[spine03]
142 78.613846 0.087372 -4.898873 0.369659 4.260734 -4.885720 78.766380
143 78.613846 0.087372 -4.898873 0.369659 4.260734 -4.885720 78.766380
[pelvis]
142 169.435242 0.051022 0.000000 -0.010007 -0.191417 -1.897554 169.435257
143 169.435242 0.051022 0.000000 -0.010007 -0.191417 -1.897554 169.435257
[null_rope03_connect]
142 -1.257226 -2.466202 137.391083 -9.941752 -79.997871 120.433884 137.418976
143 -1.257226 -2.466202 137.391083 -14.676850 -81.022507 125.104164 137.418976
[null_rope04_connect]
142 -1.259640 -2.480268 -137.844437 -9.941752 -79.997871 120.433884 137.872513
143 -1.259640 -2.480268 -137.844437 -14.676850 -81.022507 125.104164 137.872513
[Rope3_Seg01]
142 0.000000 0.000000 0.000000 -21.943666 -23.844055 -13.704196 0.000000
143 0.000000 0.000000 0.000000 -27.165556 -27.040289 -10.411222 0.000000
[Rope3_Seg02]
142 139.999924 -0.000119 0.000060 -1.843334 0.769119 4.620405 139.999924
143 139.999924 -0.000119 0.000060 -2.059177 0.446871 4.659486 139.999924
[Rope3_Seg03]
142 139.999924 -0.000119 0.000119 -4.005676 0.972545 7.331712 139.999924
143 139.999924 -0.000119 0.000119 -4.396749 0.439514 7.389243 139.999924
[Rope3_Seg04]
142 139.999924 0.000119 0.000000 -12.852956 0.798178 13.150410 139.999924
143 139.999924 0.000119 0.000000 -13.438926 -0.234030 13.215242 139.999924
[Rope3_Seg05]
142 139.999924 -0.000238 0.000060 -81.119354 -5.215467 30.910479 139.999924
143 139.999924 -0.000238 0.000060 -72.460083 -7.790077 30.563389 139.999924
[Rope3_Seg06]
142 139.999893 -0.000119 -0.000060 -29.687578 -25.510092 0.591865 139.999893
143 139.999893 -0.000119 -0.000060 -30.187525 -25.444326 2.676572 139.999893
[Rope3_Seg07]
142 139.999771 0.000060 -0.000119 -3.283421 -5.635449 -1.684556 139.999771
143 139.999771 0.000060 -0.000119 -3.524648 -5.804830 -1.276242 139.999771
[Rope3_Seg08]
142 139.999985 -0.000060 0.000000 -2.365154 -6.128518 -2.710597 139.999985
143 139.999985 -0.000060 0.000000 -2.646101 -6.357996 -2.284283 139.999985
[Rope3_Seg09]
142 90.185997 -0.000179 -0.000060 89.793228 -1.359877 -0.847183 90.185997
143 90.185997 -0.000179 -0.000060 89.793228 -1.359877 -0.847183 90.185997
[R_rear_hand01]
142 103.366196 -6.073594 -10.757982 -161.551193 16.666374 -30.088671 104.101845
143 103.366196 -6.073594 -10.757982 -161.551193 16.666374 -30.088671 104.101845
[R_rear_hand02]
142 100.509819 12.039542 -7.992327 -34.280552 19.289745 28.875523 101.543350
143 100.509819 12.039542 -7.992327 -34.280552 19.289745 28.875523 101.543350
[R_rear_hand03]
142 101.539970 5.215704 5.435467 83.366440 -30.933914 7.284830 101.819031
143 101.539970 5.215704 5.435467 83.366440 -30.933914 7.284830 101.819031
[Rope4_Seg01]
142 -0.000002 -0.000005 0.000009 -75.297691 -24.675859 -151.852737 0.000010
143 -0.000002 -0.000004 0.000008 -79.590912 -22.939646 -147.378494 0.000009
[Rope4_Seg02]
142 139.999985 0.000060 0.000119 7.649573 12.128963 -5.258357 139.999985
143 139.999985 0.000060 0.000119 7.214453 12.370947 -5.414042 139.999985
[Rope4_Seg03]
142 139.999924 0.000000 -0.000238 15.637887 15.583063 -9.917890 139.999924
143 139.999924 0.000000 -0.000238 15.770020 16.833483 -10.641759 139.999924
[Rope4_Seg04]
142 139.999985 0.000000 0.000119 19.159021 10.165344 -15.481413 139.999985
143 139.999985 0.000000 0.000119 20.027536 11.470740 -16.901463 139.999985
[Rope4_Seg05]
142 139.999802 -0.000060 -0.000119 14.956487 6.660548 -13.721971 139.999802
143 139.999802 -0.000060 -0.000119 14.587562 6.366521 -14.463305 139.999802
[Rope4_Seg06]
142 139.999924 0.000000 0.000060 18.593571 9.233150 -20.149727 139.999924
143 139.999924 0.000000 0.000060 17.689888 8.530371 -21.765194 139.999924
[Rope4_Seg07]
142 139.999802 0.000000 0.000000 12.779365 1.686554 -20.603226 139.999802
143 139.999802 0.000000 0.000000 11.978823 1.015313 -22.749701 139.999802
[Rope4_Seg08]
142 139.999924 0.000000 0.000119 2.876328 -1.990599 -10.458320 139.999924
143 139.999924 0.000000 0.000119 2.210029 -2.318501 -11.093310 139.999924
[Rope4_Seg09]
142 90.185791 0.000060 0.000060 -135.617828 2.228885 0.850567 90.185791
143 90.185791 0.000060 0.000060 -135.617828 2.228885 0.850567 90.185791
[L_rear_hand01]
142 101.696655 -8.392275 -7.654577 -34.454281 -18.946800 151.655121 102.329041
143 101.696655 -8.392275 -7.654577 -34.454281 -18.946800 151.655121 102.329041
[L_rear_hand02]
142 102.726799 -1.568258 5.773216 83.407906 30.330435 172.796509 102.900848
143 102.726799 -1.568258 5.773216 83.407906 30.330435 172.796509 102.900848
[L_rear_hand03]
142 104.552910 9.721220 -10.420293 -161.379868 -16.473232 -150.512238 105.519653
143 104.552910 9.721220 -10.420293 -161.379868 -16.473232 -150.512238 105.519653
